<?xml version="1.0" encoding="UTF-8"?>
<svg id="Layer_2" xmlns="http://www.w3.org/2000/svg" viewBox="0 0 325.44 117.95">
  <defs>
    <style>
      .cls-1 {
        fill: #fc5151;
      }

      .cls-2 {
        fill: #1d3557;
      }
    </style>
  </defs>
  <g id="Layer_1-2" data-name="Layer_1">
    <g>
      <path class="cls-1" d="M42.52,30.67c26.87,0,41.1,18.97,41.1,43.94v5.06H25.45c.79,10.12,7.27,17.54,17.86,17.54,8.85,0,13.59-3.95,15.81-8.85h23.87c-3.64,16.91-19.28,28.93-39.36,28.93C16.12,117.29,0,98.79,0,73.98S17.07,30.67,42.52,30.67M58.48,63.07c-1.27-8.38-7.27-14.07-15.97-14.07s-14.7,5.85-16.6,14.07h32.56Z"/>
      <path class="cls-2" d="M155.38,115.39v-11.22c-4.11,7.74-11.86,13.12-24.18,13.12-22.29,0-37.94-18.97-37.94-43.31s15.49-43.31,37.78-43.31c12.17,0,19.6,5.37,23.55,13.12V0h26.56v115.39h-25.76ZM137.36,52.64c-11.07,0-17.55,10.43-17.55,21.34s6.48,21.34,17.55,21.34,17.23-8.85,17.23-21.34-6.48-21.34-17.23-21.34"/>
      <path class="cls-2" d="M237.72,30.66c23.55,0,39.2,14.7,41.1,35.41h-25.29c-1.74-7.27-6.95-13.12-15.65-13.12-11.7,0-17.07,10.12-17.07,21.02s5.37,21.02,17.07,21.02c8.69,0,13.91-5.85,15.65-13.12h25.29c-1.9,20.71-17.55,35.41-41.1,35.41-26.71,0-43.47-19.44-43.47-43.31s16.76-43.31,43.47-43.31"/>
      <polygon class="cls-1" points="325.44 98.95 306.44 117.95 306.44 79.95 325.44 98.95"/>
      <polygon class="cls-2" points="306.44 79.95 306.44 117.95 287.44 98.95 306.44 79.95"/>
    </g>
  </g>
</svg>